# xmcd
#
# Track frame offsets:
#	182
#	13680
#	28512
#	42632
#	55405
#	70540
#	85212
#	99507
#	113060
#	126792
#	140410
#	153567
#	167022
#	181665
#	194695
#	207702
#	221710
#	233055
#	247282
#	262060
#	276885
#	288995
#	301080
#	316787
#
# Disc length: 4405
#
# Revision: 1
# Processed by: cddbd v1.5.1PL0 Copyright (c) Steve Scherf et al.
# Submitted via: CDex 1.51
# Normalized: r0:TRMNUM
#
DISCID=65113318
DTITLE=lester  young - easy does it, 1936-1940
DYEAR=1996
DGENRE=Jazz
TTITLE0=shoe shine boy
TTITLE1=boogie woogie
TTITLE2=oh, lady be good
TTITLE3=a sailboat in the moolight (billie holiday)
TTITLE4=every tub 
TTITLE5=blue and sentimenatl
TTITLE6=jumpin' at the woodside
TTITLE7=way down yonder in new orleans
TTITLE8=countless blues
TTITLE9=them there eyes
TTITLE10=I want a little girl
TTITLE11=pagin' the devil
TTITLE12=you can depend on me
TTITLE13=jive at five
TTITLE14=taxi war dance
TTITLE15=twelfth street rag
TTITLE16=clap hands, here comes charlie
TTITLE17=dickie's dream
TTITLE18=lester leaps in
TTITLE19=I left my baby (feat. jimmy rushing)
TTITLE20=I never knew
TTITLE21=tickl - toe
TTITLE22=easy does it
TTITLE23=broadway
EXTD=YEAR: 1996
EXTT0=
EXTT1=
EXTT2=
EXTT3=
EXTT4=
EXTT5=
EXTT6=
EXTT7=
EXTT8=
EXTT9=
EXTT10=
EXTT11=
EXTT12=
EXTT13=
EXTT14=
EXTT15=
EXTT16=
EXTT17=
EXTT18=
EXTT19=
EXTT20=
EXTT21=
EXTT22=
EXTT23=
PLAYORDER=
